<svg xmlns="http://www.w3.org/2000/svg" viewBox="0 0 64.46 69.6"><defs><style>.cls-1,.cls-2{fill:#1d1d1b;}.cls-1{stroke:#fff;stroke-miterlimit:10;}.cls-3{fill:#fff;}</style></defs><title>Recurso 7Logo</title><g id="Capa_2" data-name="Capa 2"><g id="Capa_1-2" data-name="Capa 1"><polygon class="cls-1" points="19.73 11.1 20.73 29.1 13.73 21.1 9.73 26.1 0.73 23.1 3.73 34.1 0.73 38.1 15.73 50.1 15.73 56.1 30.73 54.1 30.73 69.1 31.73 69.1 31.73 54.09 31.73 2.1 25.67 14.1 19.73 11.1"/><polygon class="cls-1" points="63.73 23.1 54.73 26.1 50.73 21.1 43.73 29.1 44.73 11.1 38.79 14.1 32.73 2.1 32.73 69.1 33.73 69.1 33.73 54.1 48.73 56.1 48.73 50.1 63.73 38.1 60.73 34.1 63.73 23.1"/><polygon class="cls-2" points="32.23 3.6 35.23 53.6 28.23 53.6 32.23 3.6"/><polygon class="cls-2" points="32.23 2.1 33.73 5.25 33.73 20.1 30.73 20.1 30.73 5.2 32.23 2.1"/><polygon class="cls-3" points="33.23 44.6 33.23 43.6 32.23 21.6 31.23 44.6 15.23 36.6 31.23 47.6 31.23 51.6 32.23 51.6 33.23 51.6 33.23 47.6 49.23 36.6 33.23 44.6"/><rect class="cls-2" x="31.23" y="52.6" width="2" height="16"/></g></g></svg>